<?xml version="1.0" ?><!DOCTYPE svg  PUBLIC '-//W3C//DTD SVG 1.1//EN'  'http://www.w3.org/Graphics/SVG/1.1/DTD/svg11.dtd' [
	<!ENTITY stroke_color "#000">
	<!ENTITY fill_color "#eee">
]>
<svg version="1.1" id="Layer_1" xmlns="http://www.w3.org/2000/svg" xmlns:xlink="http://www.w3.org/1999/xlink" x="0px" y="0px"
	 width="75px" height="75px" viewBox="0 0 75 75" enable-background="new 0 0 75 75" xml:space="preserve">
<g>
	<g>
		<path fill="&fill_color;" d="M20.662,63.062l-4.626-0.095l0.028-1.068c0.013-0.502,0.2-5.027,2.789-11.646
			c-1.128-4.314-2.803-14.525,3.223-23.586c5.866-8.823,17.232-13.748,33.781-14.636l2.778-0.148l0.208,2.776
			c0.065,0.875,1.468,21.556-9.218,33.064c-4.582,4.936-10.644,7.438-18.02,7.438c-2.536,0-5.271-0.307-8.143-0.912
			c-1.612,4.743-1.713,7.741-1.714,7.772l-0.029,1.056L20.662,63.062z"/>
		<path fill="&stroke_color;" d="M57.651,13l0.13,1.739C57.845,15.594,59.217,35.83,48.845,47c-4.371,4.709-10.174,7.099-17.241,7.099
			c-2.741,0-5.709-0.369-8.833-1.091c-1.958,5.384-2.086,8.898-2.087,8.992l-3.558-0.073c0.006-0.228,0.136-4.823,2.844-11.608
			c-0.983-3.588-3.043-13.99,2.99-23.062c5.67-8.528,16.758-13.294,32.953-14.164L57.651,13 M59.616,10.766l-2.078,0.111L55.8,10.97
			c-16.904,0.908-28.548,5.991-34.61,15.109c-6.109,9.187-4.612,19.469-3.452,24.108C15.202,56.802,15.014,61.359,15,61.872
			l-0.055,2.136l2.136,0.045l3.558,0.073l2.147,0.044l0.022-2.147c0,0,0.101-2.521,1.368-6.545c2.604,0.496,5.095,0.747,7.426,0.747
			c7.684,0,14.008-2.617,18.799-7.778c10.997-11.843,9.565-32.971,9.499-33.865l-0.13-1.74L59.616,10.766L59.616,10.766z"/>
	</g>
	<path fill="&stroke_color;" d="M46.23,44.589c-5.075,5.458-12.519,7.153-22.093,5.073c3.924-8.673,12.301-20.558,30.157-31.089
		C54.201,24.68,53.112,37.183,46.23,44.589L46.23,44.589z"/>
	<path fill="&stroke_color;" d="M22.562,44.782c-0.448-4.249-0.176-10.24,3.357-15.556c4.259-6.403,12.228-10.415,23.721-11.977
		C34.581,26.777,26.665,37.168,22.562,44.782L22.562,44.782z"/>
</g>
</svg>
