<?xml version="1.0" ?><!DOCTYPE svg  PUBLIC '-//W3C//DTD SVG 1.1//EN'  'http://www.w3.org/Graphics/SVG/1.1/DTD/svg11.dtd' [
	<!ENTITY stroke_color "#000">
	<!ENTITY fill_color "#eee">
]>
<svg version="1.1" id="Layer_1" xmlns="http://www.w3.org/2000/svg" xmlns:xlink="http://www.w3.org/1999/xlink" x="0px" y="0px"
	 width="75px" height="75px" viewBox="0 0 75 75" enable-background="new 0 0 75 75" xml:space="preserve">
<g>
	<g>
		<path fill="&stroke_color;" d="M23.191,62.492c-2.396,0-4.344-1.973-4.344-4.398V38.969c0-0.68,0.551-1.23,1.23-1.23h35.039
			c0.68,0,1.23,0.551,1.23,1.23v19.125c0,2.426-1.948,4.398-4.344,4.398H23.191z"/>
		<path fill="&fill_color;" d="M55.117,38.969v19.125c0,1.746-1.396,3.168-3.113,3.168H23.191c-1.717,0-3.113-1.422-3.113-3.168V38.969
			H55.117 M55.117,36.508H20.078c-1.359,0-2.461,1.102-2.461,2.461v19.125c0,3.104,2.5,5.629,5.574,5.629h28.812
			c3.074,0,5.574-2.525,5.574-5.629V38.969C57.578,37.609,56.477,36.508,55.117,36.508L55.117,36.508z"/>
	</g>
	<g>
		<path fill="&stroke_color;" d="M20.078,37.7c-0.146,0-0.284-0.025-0.414-0.071h-2.75c-0.993,0-1.947-0.345-2.687-0.97
			c-0.854-0.726-1.345-1.768-1.345-2.86c0-1.091,0.488-2.133,1.339-2.857l20.468-17.457c0.739-0.63,1.696-0.977,2.693-0.977h0.152
			c1,0,1.958,0.349,2.695,0.982l20.547,17.448c0.853,0.729,1.34,1.771,1.34,2.86c-0.003,1.094-0.49,2.133-1.338,2.854
			c-0.744,0.63-1.7,0.977-2.693,0.977h-2.577c-0.123,0.046-0.255,0.071-0.392,0.071H20.078z"/>
		<path fill="&fill_color;" d="M37.535,13.739c0.707,0,1.379,0.243,1.895,0.686L59.98,31.876c0.578,0.494,0.906,1.193,0.906,1.922
			c-0.002,0.729-0.33,1.428-0.904,1.916c-0.521,0.441-1.193,0.684-1.896,0.684h-2.969v0.071H20.078v-0.071h-3.164
			c-0.703,0-1.373-0.24-1.891-0.679c-0.58-0.492-0.91-1.192-0.91-1.921s0.33-1.43,0.906-1.92l20.469-17.457
			c0.516-0.439,1.189-0.683,1.895-0.683H37.535 M37.535,11.278h-0.152c-1.29,0-2.529,0.451-3.491,1.271L13.423,30.006
			c-1.125,0.957-1.771,2.339-1.771,3.792c0,1.454,0.648,2.838,1.779,3.797c0.962,0.815,2.198,1.264,3.482,1.264h2.573
			c0.189,0.046,0.388,0.071,0.591,0.071h35.039c0.203,0,0.401-0.025,0.591-0.071h2.378c1.283,0,2.521-0.45,3.486-1.267
			c1.126-0.958,1.771-2.336,1.775-3.788c0-1.457-0.645-2.839-1.769-3.799L41.022,12.548C40.071,11.732,38.829,11.278,37.535,11.278
			L37.535,11.278z"/>
	</g>
</g>
</svg>
