<?xml version="1.0" ?><!DOCTYPE svg  PUBLIC '-//W3C//DTD SVG 1.1//EN'  'http://www.w3.org/Graphics/SVG/1.1/DTD/svg11.dtd' [
	<!ENTITY stroke_color "#000">
	<!ENTITY fill_color "#eee">
]>
<svg version="1.1" id="Layer_1" xmlns="http://www.w3.org/2000/svg" xmlns:xlink="http://www.w3.org/1999/xlink" x="0px" y="0px"
	 width="75px" height="75px" viewBox="0 0 75 75" enable-background="new 0 0 75 75" xml:space="preserve">
<g>
	<circle fill="&fill_color;" cx="37.5" cy="37.5" r="25.075"/>
	<path fill="&stroke_color;" d="M18.968,41.535c0.371,0.285,1.035,0.154,1.389,0.633c0.278,0.01,0.373-0.096,0.539-0.16
		c-0.332-0.332-0.795-0.424-1.227-0.592C19.443,41.334,19.029,41.045,18.968,41.535L18.968,41.535z M32.337,33.646
		c0.269-0.012,0.388-0.186,0.596-0.262c0.073-0.293-0.101-0.535-0.018-0.809c-0.271-0.43-0.479,0.201-0.74,0.215
		c0.026,0.256,0.032,0.482-0.021,0.654C32.23,33.48,32.273,33.584,32.337,33.646L32.337,33.646z M21.042,42.523
		c0.186,0.094,0.352,0.088,0.545,0.109c0.051-0.09-0.016-0.125,0.023-0.223c0.053-0.057,0.143,0.033,0.203-0.047
		C21.651,42.182,21.007,42.018,21.042,42.523L21.042,42.523z M32.943,32.387c0.086,0.078,0.166,0.186,0.217,0.33
		c0.115-0.008,0.205,0.021,0.271,0.1c-0.06,0.033-0.033,0.133,0,0.219c-0.07,0.033-0.097,0.129-0.169,0.168
		c0.117,0.174-0.104,0.268-0.025,0.4c0.029,0.074,0.152-0.014,0.152,0.111c-0.023,0.209-0.295,0.152-0.281,0.4
		c0.06,0.1,0.197,0.08,0.33,0.061c0.211-0.211,0.518-0.195,0.83-0.256c0.28-0.242,0.215-0.895-0.156-1.004
		c-0.08-0.49-0.375-0.617-0.578-0.891c0.033-0.164,0.106-0.297,0.051-0.561c-0.065-0.053-0.139,0.027-0.232-0.008
		c0.016-0.1-0.004-0.105-0.047-0.188c-0.299-0.061-0.51,0.16-0.602,0.42c0.047,0.178,0.135,0.283,0.229,0.391
		C32.962,32.213,32.937,32.285,32.943,32.387L32.943,32.387z M43.019,25.967c0.109,0.133,0.087,0.256,0.176,0.334
		c0.193-0.104,0.573,0.117,0.596-0.295c-0.055-0.072-0.079,0.035-0.143-0.02c-0.264-0.535-0.048-1.102,0.312-1.203
		c0.059-0.42,0.423-0.492,0.637-0.74c0.002,0.072,0.078,0.004,0.116,0.021c0.339-0.383,0.798-0.262,1.146-0.557
		c-0.01-0.195-0.096-0.254-0.139-0.395c-0.299-0.193-0.473,0.137-0.688,0.242c-0.116,0.053-0.249,0.01-0.366,0.062
		c-0.194,0.08-0.396,0.27-0.608,0.355c-0.17,0.078-0.384,0-0.5,0.074c-0.125,0.08-0.157,0.273-0.233,0.424
		c-0.058,0.113-0.141,0.186-0.162,0.232c0-0.01,0.023,0.029,0.01,0.057c-0.133,0.209-0.283,0.324-0.334,0.59
		c0.053,0.012,0.02,0.189,0.07,0.207c-0.102,0.125-0.223,0.195-0.193,0.363C42.746,25.879,42.898,25.84,43.019,25.967L43.019,25.967
		z M44.269,50.236c-0.206,0.053-0.111,0.469-0.309,0.59c-0.001,0.119,0.069,0.148,0.027,0.219c-0.049-0.01-0.046,0.049-0.065,0.066
		c-0.321-0.029-0.45,0.287-0.538,0.604c0.155,0.514-0.061,1.135-0.005,1.645c0.183,0.148,0.222,0.555,0.431,0.561
		c0.266-0.002,0.287-0.555,0.421-0.816c-0.089-0.568,0.271-0.881,0.235-1.477c0.127-0.225,0.115-0.6,0.209-0.861
		C44.544,50.555,44.455,50.211,44.269,50.236L44.269,50.236z M54.623,42.283c0.185,0.301,0.507-0.096,0.396-0.369
		C54.81,42.014,54.649,42.006,54.623,42.283L54.623,42.283z M57.011,40.604c-0.377-0.139-0.496,0.283-0.373,0.65
		c0.083,0.021,0.148,0.07,0.267,0.047C56.939,41.068,57.048,40.908,57.011,40.604L57.011,40.604z M37.5,14.561
		c-12.65,0-22.94,10.291-22.94,22.939c0,12.65,10.29,22.939,22.94,22.939c12.65,0,22.94-10.289,22.94-22.939
		C60.439,24.852,50.149,14.561,37.5,14.561L37.5,14.561z M20.138,27.6c0,0.031,0,0.062,0.008,0.098
		c-0.012,0.053-0.06,0.064-0.108,0.076C20.072,27.715,20.107,27.656,20.138,27.6L20.138,27.6z M19.976,27.883
		c0.035,0.047,0.104,0.07,0.067,0.111c-0.089,0-0.006,0.023-0.013,0.088c-0.041,0.014-0.1,0.008-0.163,0
		C19.902,28.016,19.939,27.949,19.976,27.883L19.976,27.883z M20.421,46.176c-0.016,0.047-0.242,0.662-0.311,0.738
		c-0.061,0.066-0.082-0.008-0.113,0.07C19.985,47.023,19.99,47.09,20,47.16c-0.481-0.867-0.899-1.773-1.251-2.715
		c0.003,0.002,0.003,0.002,0.003,0.002c0.05,0.076,0.2,0.166,0.304,0.285c0.281,0.307,0.672,0.744,1.016,0.377
		C20.453,45.398,20.541,45.721,20.421,46.176L20.421,46.176z M37.5,57.496c-4.082,0-7.884-1.232-11.051-3.342
		c-0.018-0.104-0.039-0.207-0.067-0.291c0.093-0.232,0.286-0.369,0.397-0.586c0.384-0.135,0.668-0.369,1.057-0.492
		c0.091-0.545,0.107-1.166,0.319-1.576c-0.018-0.25-0.019-0.471-0.061-0.746c0.106-0.053,0.208-0.113,0.307-0.18
		c-0.013-0.162,0.015-0.268,0.026-0.404c0.332-0.059,0.268-0.555,0.365-0.865c-0.036-0.145-0.104-0.234-0.154-0.369
		c-0.285-0.102-0.532-0.371-0.771-0.494c-0.355-0.174-0.529-0.418-0.822-0.305c-0.295-0.248-0.656-0.41-0.975-0.641
		c-0.206,0.039-0.326,0.152-0.518,0.143c0.027-0.248,0.159-0.373,0.246-0.555c-0.065-0.307-0.25-0.406-0.373-0.617
		c-0.42-0.092-0.746-0.637-1.238-0.742c-0.086-0.137-0.207-0.213-0.289-0.35c-0.068,0-0.107-0.051-0.172-0.045
		c-0.199-0.375-0.511-0.418-0.795-0.49c-0.246,0.193-0.271,0.053-0.543-0.055c-0.068-0.031-0.211-0.02-0.256-0.043
		c-0.145-0.086-0.156-0.244-0.277-0.227c-0.176,0.027-0.164,0.414-0.336,0.336c0.012-0.105-0.035-0.309-0.072-0.453
		c-0.248,0.027-0.313,0.393-0.564,0.539c-0.168-0.039-0.3,0.076-0.442,0.217c-0.081-0.037-0.101-0.199-0.204-0.199
		c-0.443-0.018-0.884,0.029-0.951-0.412c-0.032-0.207,0.162-0.607,0.011-0.971c-0.118-0.025-0.157-0.207-0.284-0.287
		c-0.211-0.117-0.498,0.066-0.674-0.193c-0.165-0.459,0.136-0.627,0.072-1.057c-0.157-0.156-0.33-0.16-0.464-0.072
		c-0.133-0.631-0.239-1.27-0.312-1.92c0.079,0.008,0.159,0.021,0.238,0.041c0.068-0.035,0.061-0.172,0.114-0.227
		c0.331-0.168,0.534,0.174,0.892,0.08c0,0.08,0.069,0.029,0.08,0.088c0.148,0.457,0.376,0.777,0.643,1.035
		c0.182-0.432-0.189-0.854-0.219-1.379c0.078-0.176,0.115-0.25,0.156-0.475c0.497-0.252,0.904-0.77,0.668-1.521
		c0.131-0.021,0.15,0.053,0.232-0.021c0.004-0.092,0.017-0.168,0.038-0.242c0.126-0.447,0.538-0.592,0.761-0.943
		c0.044-0.084-0.047-0.158-0.035-0.303c0.503-0.018,0.51-0.578,0.997-0.607c0.149-0.113,0.058-0.559-0.005-0.684
		c0.075-0.256,0.321-0.318,0.297-0.678c-0.43-0.049-0.789,0.365-1.23,0.379c0.262-0.066,0.398-0.49,0.676-0.58
		c0.336-0.113,0.737,0.129,1.039-0.023c0.138-0.068,0.204-0.217,0.32-0.273c0.189-0.092,0.387-0.117,0.485-0.443
		c0.035-0.139-0.011-0.426-0.077-0.527c-0.143-0.031-0.324,0.025-0.451-0.055c0.004-0.146,0.174-0.121,0.154-0.293
		c-0.047-0.047-0.139-0.014-0.211-0.008c-0.102-0.26-0.293-0.365-0.447-0.523c-0.237-0.654-0.334-1.322-0.9-1.422
		c-0.071,0.262-0.053,0.592-0.412,0.654c-0.322-0.178-0.246-0.748-0.46-1.02c-0.104-0.135-0.342-0.164-0.47-0.277
		c-0.064-0.047-0.068-0.166-0.158-0.203c-0.359,0.07-0.557-0.143-0.922,0.045c-0.075,0.18-0.012,0.324,0.092,0.461
		c0.154,0.754-0.029,1.062,0.162,1.666c-0.107,0.387-0.537,0.67-0.234,1.262c-0.104,0.09-0.026,0.424-0.235,0.424
		c-0.281,0-0.351-0.82-0.477-1.209c-0.104-0.061-0.23-0.158-0.366-0.264c0.221-0.725,0.484-1.432,0.783-2.121
		c0.025,0.137,0.067,0.238,0.162,0.264c0.073-0.135,0.023-0.348-0.082-0.443c0.118-0.266,0.24-0.527,0.369-0.785
		c0.143,0.09,0.366-0.02,0.598-0.029c0.126,0.174,0.297,0.277,0.419,0.467c0.457,0.09,0.688,0.797,1.2,0.584
		c-0.058-0.355-0.354-0.309-0.457-0.584c0.224-0.115,0.287,0.141,0.543,0.109c0.296-0.248,0.045-0.734-0.307-0.688
		c-0.053-0.158-0.118-0.293-0.163-0.457c0.305-0.123,0.515,0.236,0.813,0.248c0.098-0.184,0.15-0.42,0.236-0.619
		c-0.091-0.154-0.279-0.16-0.359-0.338c-0.238-0.213-0.605-0.213-0.76-0.562c-0.01-0.084,0.069,0.072,0.04-0.064
		c-0.063-0.258-0.194-0.406-0.325-0.555c0.535-0.77,1.12-1.498,1.756-2.186c0.19,0.326,0.361,0.682,0.598,0.934
		c-0.045,0.318,0.04,0.615,0.206,0.826c0.499-0.402,0.854,0.414,0.866,0.949c-0.078,0.102-0.249,0.234-0.117,0.414
		c-0.148,0.201-0.477,0.328-0.465,0.625c0.015,0.377,0.41,0.523,0.545,0.734c0.03,0.502,0.176,0.699,0.25,1.227
		c0.373,0.186,0.848,0.207,1.027,0.725l0.299-0.027c0.047-0.068,0.105-0.135,0.166-0.199c0-0.387,0.092-0.67,0.144-1.006
		c0.319-0.26,0.267-0.811,0.669-0.857c0.046-0.014,0.141,0.033,0.188,0.012c0.127-0.064,0.158-0.316,0.283-0.428
		c0.162-0.158,0.338-0.137,0.472-0.287c0.031-0.107,0.044-0.242,0.134-0.289c0.707,0.012,1.193-0.443,1.702-0.729
		c0.038-0.102-0.075-0.26-0.144-0.303c-0.128,0.039-0.321,0.078-0.402-0.057c0.182-0.314,0.403,0.041,0.674,0
		c0.046-0.342-0.293-0.568-0.253-1.033c-0.061-0.066-0.239,0.07-0.222-0.131c0.152-0.162,0.332,0.201,0.568,0.137
		c0.041-0.15,0.213-0.326,0.213-0.604c0-0.109-0.068-0.232-0.06-0.34c0.009-0.068,0.062-0.111,0.075-0.162
		c0.07-0.248-0.064-0.385-0.108-0.582c0.116-0.053,0.243-0.094,0.354-0.154c-0.045-0.365-0.241-0.463-0.458-0.555
		c-0.129-0.57,0.287-0.77,0.413-1.154c0.5-0.133,0.746-0.545,0.978-0.98c-0.089-0.088-0.172,0.012-0.322-0.004
		c-0.311-0.385-1.238-0.002-1.514,0.152c-0.025-0.104,0.022-0.131-0.004-0.248c-0.059-0.117-0.223-0.057-0.293-0.156
		c0.168-0.039,0.393-0.025,0.44-0.189c-0.149-0.363-0.513-0.383-0.739-0.623c-0.11-0.006-0.268,0.07-0.32,0.049
		c-0.018-0.008-0.043-0.012-0.063-0.014c2.679-1.338,5.695-2.092,8.886-2.092c5.474,0,10.441,2.213,14.057,5.789
		c-0.247,0.223-0.812,0.299-1.137,0.152c-0.16,0.035-0.246,0.182-0.391,0.279c-0.324,0.219-0.838,0.211-0.986,0.51
		c-0.061,0.141,0.082,0.186,0.062,0.377c-0.271,0.17-0.885,0.074-1.143,0.332c-0.074,0.123,0.1,0.131,0.075,0.277
		c0.343,0.047,0.554,0.5,0.494,0.924c-0.104-0.203-0.224-0.408-0.344-0.594c-0.239-0.182-0.798-0.391-0.941,0.045
		c0.052,0.23,0.266,0.184,0.299,0.443c-0.12,0.061-0.281-0.035-0.385-0.123c0.011-0.121,0.086-0.293,0-0.432
		c-0.194-0.02-0.243,0.08-0.349,0.176c0.023,0.182,0.037,0.408-0.025,0.406c0.15,0.211,0.159,0.578,0.281,0.857
		c0.045-0.027,0.327-0.174,0.414-0.004c-0.235-0.057-0.328,0.123-0.424,0.188c0.037,0.121,0.018,0.266-0.002,0.406
		c-0.199,0.08-0.305,0.418-0.537,0.379c0.133-0.244,0.225-0.531,0.277-0.861c-0.066-0.254-0.216-0.494-0.221-0.758
		c-0.006-0.264,0.214-0.484,0.09-0.877c-0.027-0.098-0.192-0.346-0.295-0.383c-0.178-0.057-0.504,0.33-0.575,0.484
		c-0.028,0.059-0.108,0.197-0.111,0.227c-0.085,0.438,0.214,0.951,0.257,1.312c-0.173,0.018-0.354-0.164-0.494-0.303
		c-0.182-0.066-0.314,0.012-0.49-0.02c-0.318-0.051-0.48-0.479-0.754-0.342c-0.053,0.305,0.307,0.291,0.182,0.639
		c-0.088-0.01-0.196-0.014-0.309-0.07c-0.24,0.311-0.42,0.037-0.619,0.082c-0.072,0.02-0.218,0.039-0.36,0.061
		c-0.192,0.039-0.312,0.219-0.455,0.316c-0.104,0.068-0.216,0.096-0.304,0.152c-0.191,0.113-0.279,0.455-0.48,0.287
		c-0.045-0.223,0.113-0.221,0.094-0.416c-0.141-0.178-0.361-0.418-0.555-0.201c0.015,0.346,0.057,0.621-0.094,0.818
		c-0.34,0.086-0.445,0.436-0.597,0.732c-0.126-0.068-0.185-0.033-0.304-0.008c-0.076,0.068-0.026,0.275-0.153,0.289
		c-0.124-0.029-0.113-0.129-0.142-0.266c-0.158-0.238-0.387-0.359-0.474-0.711c0.474,0.289,1.14,0.264,1.321-0.449
		c-0.135-0.217-0.305-0.176-0.473-0.299c-0.199-0.469-0.629-0.68-1.062-0.633c-0.116-0.131-0.206-0.111-0.344-0.16
		c-0.056-0.066-0.093-0.162-0.163-0.201c-0.227,0.047-0.388,0.082-0.54-0.049c-0.31,0.16-0.752,0.012-1.01,0.324
		c-0.078,0.021-0.111-0.039-0.188-0.045c-0.245,0.467-0.883,0.605-1.041,1.084c-0.336,0.102-0.584,0.541-0.505,1.096
		c-0.12,0.57-0.526,0.957-0.841,1.221c0.11,0.346,0.096,0.857,0.134,1.232c0.062,0.156,0.218,0.059,0.339,0.127
		c0.072,0.043,0.061,0.135,0.156,0.143c0.209,0.021,0.295-0.211,0.446-0.355c0.117,0.08,0.22,0.174,0.39,0.164
		c0.092,0.193,0.208,0.346,0.392,0.402c0.175-0.301,0.281-0.682,0.368-1.086c-0.072-0.152-0.176-0.236-0.27-0.357
		c-0.186-0.785,0.645-0.855,0.684-1.574c0.101-0.127,0.338-0.395,0.51-0.195c0.041,0.053-0.004,0.125,0.048,0.211
		c-0.312,0.432-0.71,0.834-0.511,1.693c0.145,0,0.25,0.238,0.443,0.27c0.187,0.029,0.395-0.137,0.57-0.137
		c0.032,0,0.027,0.078,0.053,0.088c0.045,0.02,0.144-0.115,0.161-0.01c-0.049-0.006-0.049,0.08-0.058,0.131
		c-0.236-0.043-0.721,0.07-0.707,0.301c0.006,0.096,0.191,0.184,0.217,0.291c0.077,0.365-0.193,0.445-0.438,0.258
		c-0.217,0.037-0.131,0.389-0.133,0.66c-0.258,0.24-0.559,0.18-1.018,0.24c-0.152-0.326-0.32-0.832-0.611-0.947
		c-0.209-0.076-0.365,0.125-0.504,0.262c-0.094,0.475,0.48,1.289-0.217,1.234c-0.169,0.287-0.485,0.418-0.561,0.816
		c-0.342,0.1-0.417,0.5-0.718,0.648c0-0.08-0.056-0.072-0.101-0.084c-0.047,0.312-0.455,0.07-0.488,0.408
		c0.232,0.223,0.504,0.379,0.639,0.756c-0.056,0.166-0.008,0.428-0.051,0.602c-0.406,0.088-1.059-0.115-1.385,0.234
		c0.079,0.273,0.102,0.502,0.111,0.736c0.013,0.264,0.013,0.533,0.061,0.873c0.214,0.15,0.44,0.279,0.69,0.373
		c0.046-0.029,0.059-0.1,0.128-0.1c0.518,0.105,0.978-0.34,0.835-1.031c0.045-0.039,0.091-0.076,0.136-0.115
		c0.207-0.168,0.402-0.344,0.427-0.715c0.259-0.076,0.364-0.184,0.617-0.053c0.224-0.041,0.364-0.391,0.613-0.355
		c0.291,0.043,0.573,0.588,0.517,0.961c0.057,0.035,0.098,0.094,0.134,0.162c0.12,0.217,0.19,0.518,0.491,0.432
		c0.061-0.09,0.091-0.244,0.022-0.402c0.009-0.014,0.021-0.02,0.031-0.029c0.044-0.031,0.108-0.043,0.095-0.141
		c-0.174-0.166-0.316-0.396-0.364-0.775c0.322-0.107,0.56,0.221,0.59,0.729c0.058,0.059,0.11,0.123,0.163,0.188
		c0.204,0.25,0.367,0.561,0.45,1.006c0.361-0.049,0.312-0.627,0.222-0.955c0.016-0.016,0.035-0.033,0.051-0.051
		c0.134-0.133,0.292-0.271,0.48-0.207c0.006,0.078,0.012,0.146,0.016,0.207c0.016,0.203,0.018,0.359,0.024,0.629
		c0.108,0.166,0.239,0.289,0.35,0.438c0.334,0.004,0.708-0.059,0.94,0.104c0.134-0.031,0.191-0.158,0.353-0.178
		c0.118,0.49-0.073,0.889-0.115,1.322c-0.2,0.104-0.389-0.07-0.581-0.053c-0.114,0.014-0.219,0.135-0.334,0.154
		c-0.645,0.094-1.26-0.807-1.812-0.223c-0.004,0.09,0.018,0.223-0.007,0.305c-0.21,0.129-0.409-0.158-0.454-0.301
		c-0.213-0.086-0.506-0.193-0.777-0.342c0.004-0.279-0.027-0.402-0.064-0.832c-0.104-0.219-0.389-0.135-0.58-0.205
		c-0.1,0.135-0.369,0.143-0.505,0.037c-0.437,0.311-1.224,0.367-1.651,0.604c-0.126-0.117-0.305-0.232-0.473-0.086
		c-0.071,0.447-0.399,0.605-0.596,0.918l0.053,0.494c-0.061,0.143-0.19,0.205-0.238,0.359c-0.243,0.188-0.48,0.52-0.612,0.738
		c0.093,0.314-0.305,0.521-0.323,0.83c-0.014,0.104,0.047,0.17,0.076,0.305c0.035,0.182,0.041,0.383,0.084,0.58
		c0.082,0.371-0.012,0.615-0.026,1.033c-0.015,0.451,0.177,0.531,0.354,0.686c0.162,0.545,0.594,0.658,0.736,1.24
		c0.188,0.043,0.251,0.324,0.326,0.441c0.181,0.16,0.401,0.238,0.645,0.197c0.148-0.191,0.463-0.15,0.674-0.012
		c0.323-0.08,0.744-0.146,1.024-0.402c0.075,0.08,0.138,0,0.278,0.012c0.128,0.311,0.418,0.361,0.754,0.344
		c0.062,0.107,0.109,0.252,0.176,0.35c0.056,0.4-0.084,0.578-0.138,0.855c0.228,0.59,0.771,0.783,0.791,1.52
		c0.13,0.189,0.235,0.354,0.288,0.531c0.276,0.91-0.404,1.434-0.217,2.262c0.057,0.246,0.219,0.451,0.309,0.689
		c0.107,0.291,0.207,0.578,0.24,0.943c0.155,0.547,0.256,1.363,0.464,1.709c0.181-0.045,0.263,0.404,0.307,0.717
		c0.319,0.709,1.419,0.223,1.981,0.088c0.018-0.096,0.029-0.189,0.039-0.281c0.403-0.312,0.578-0.869,0.827-1.344
		c-0.008-0.291-0.022-0.289-0.038-0.555c0.163-0.158,0.262-0.176,0.314-0.336c0.108-0.318-0.059-0.553-0.107-0.77
		c-0.055-0.221,0.262-0.521,0.41-0.715c0.091-0.119,0.204-0.287,0.309-0.373c0.346-0.285,0.244-0.637,0.187-1.252
		c-0.112-0.105-0.082-0.262-0.136-0.395c-0.122-0.287-0.334-0.467-0.308-0.879c0.018-0.227,0.23-0.988,0.294-1.141
		c0.1-0.229,0.453-0.506,0.677-0.803c0.189-0.24,0.34-0.523,0.501-0.725c0.09-0.418,0.158-0.857,0.338-1.176
		c-0.021-0.373,0.139-0.539,0.238-0.766c-0.512-0.316-0.737,0.266-1.104,0.273c-0.23,0.006-0.297-0.172-0.422-0.273
		c-0.229-0.203-0.416-0.295-0.6-0.605c-0.012-0.143-0.125-0.303-0.145-0.453c-0.253-0.242-0.43-0.68-0.58-1.074
		c-0.229-0.602-0.512-1.18-0.695-1.715c-0.008-0.053-0.096,0.039-0.103-0.084c0.248-0.223,0.431,0.348,0.552,0.576
		c0.211,0.42,0.539,0.441,0.52,0.951c0.152,0.232,0.354,0.377,0.525,0.578c0.214,0.352,0.214,0.859,0.316,1.375
		c0.389,0.451,0.854-0.154,1.373-0.145c0.254-0.43,0.629-0.732,1.154-0.869c0.132-0.467,0.496-0.686,0.428-1.369
		c-0.136-0.178-0.334-0.271-0.502-0.395c-0.095-0.164-0.166-0.35-0.348-0.383c-0.082,0.232-0.164,0.402-0.346,0.402
		c-0.232,0.006-0.268-0.275-0.437-0.363c-0.114-0.068-0.144,0.051-0.261-0.068c-0.068-0.102-0.023-0.254-0.043-0.375
		c-0.102-0.191-0.299-0.223-0.329-0.535c0.441-0.121,0.562,0.65,0.939,0.801c0.148,0.053,0.36,0.014,0.55-0.049
		c0.025,0.064,0.096,0.09,0.158,0.174c0.564,0.121,1.141,0.318,1.813,0.254c0.152,0.395,0.513,0.488,0.706,0.543
		c0.019,0.338,0.069,0.607,0.336,0.529c0.058-0.072,0.058-0.191,0.115-0.26c0.037,0.062,0.121,0.057,0.135,0.174
		c-0.031,0.008-0.067,0-0.067,0.033c0.144,0.211,0.101,0.576,0.126,0.768c0.032,0.209,0.158,0.428,0.127,0.705
		c0.279,0.674,0.43,0.918,0.652,1.537c0.09,0.006,0.115,0.127,0.202,0.133c0.114-0.125,0.253-0.219,0.352-0.365
		c-0.013-0.492,0.241-0.836,0.111-1.529c0.429-0.461,0.874-0.902,1.103-1.58c0.283,0.021,0.453-0.086,0.574-0.236
		c0.201,0.506,0.766,0.734,0.619,1.412c0.149,0.285,0.527,0.301,0.701,0.062c0.115,0.385,0.415,1.127,0.297,1.66
		c0.188,0.436,0.54,1.064,0.641,1.596c-0.197-0.045-0.328-0.207-0.54-0.242c-0.068-0.238-0.326-0.426-0.483-0.205
		c0.064,0.328,0.232,0.564,0.363,0.811c0.07,0.119,0.117,0.297,0.186,0.414c0.06,0.1,0.195,0.207,0.271,0.326
		c0.246,0.383,0.439,0.496,0.771,0.707c0.097,0.066,0.187,0.154,0.267,0.223C50.775,53.814,44.562,57.496,37.5,57.496L37.5,57.496z
		 M42.785,35.541c0.258-0.281,0.758-0.639,1.115-0.402c-0.035,0.314-0.428,0.256-0.443,0.594c0.118,0.283,0.367,0.545,0.453,0.986
		c0.025,0.125,0.007,0.285,0.05,0.402c0,0.002,0.001,0.008,0.001,0.01h-0.676c0.016-0.061,0.031-0.119,0.029-0.174
		C43.285,36.385,42.774,36.107,42.785,35.541L42.785,35.541z M41.727,36.646c-0.146,0.039-0.251,0.201-0.472,0.162
		c-0.152-0.027-0.27-0.242-0.428-0.309c-0.156-0.061-0.911-0.012-1.123,0.094c-0.104,0.045-0.141,0.238-0.328,0.215
		c0.133-0.178-0.073-0.275-0.093-0.459c-0.019-0.158,0.067-0.205,0.138-0.389c0.129-0.295,0.156-0.615,0.416-0.715
		c0.049,0.125,0.146,0.191,0.272,0.197c0,0.145,0.051,0.205,0.06,0.336c0.182,0.059,0.326-0.074,0.468-0.191
		c0.005-0.145-0.085-0.154-0.083-0.303c0.135-0.104,0.447,0.006,0.51-0.23c0.086,0.152-0.072,0.26-0.094,0.383
		c0.18,0.469,0.5,0.711,0.805,0.988C41.799,36.547,41.694,36.525,41.727,36.646L41.727,36.646z M56.761,42.854
		c-0.346,1.24-0.807,2.434-1.373,3.564c-0.099-0.004-0.102-0.006-0.227-0.016c-0.15,0.107-0.139,0.361-0.075,0.6
		c-0.126,0.236-0.259,0.463-0.394,0.689c-0.004-0.057-0.009-0.113-0.009-0.16c-0.104-0.078-0.215,0.07-0.274,0.025
		c-0.135-0.432-0.611-0.742-0.752-1.154c0.19,0.084,0.396,0.461,0.601,0.201c-0.095-0.5-0.247-0.938-0.533-1.262
		c-0.048-0.062-0.128-0.076-0.178-0.143c-0.291-0.389-0.548-0.893-0.233-1.252c0.248,0.141,0.452,0.34,0.685,0.504
		c0.086,0.193,0.06,0.346,0.209,0.412c0.144-0.074,0.101-0.398,0.362-0.273c0.104-0.238,0.374-0.283,0.422-0.594
		c-0.07-0.369-0.193-0.654-0.271-0.998c-0.088-0.125-0.231-0.148-0.324-0.264c0.021-0.227-0.203-0.482-0.138-0.795
		c0.11-0.135,0.285-0.195,0.462-0.254c0.061,0.025,0.07,0.119,0.112,0.18c0.186-0.143,0.432-0.211,0.532-0.449
		c0.065-0.025,0.083,0.029,0.142,0.018c0.358-0.207,0.758-0.373,0.952-0.76c-0.006-0.549,0.363-0.666,0.277-1.295
		c-0.018-0.121-0.105-0.107-0.115-0.242c0.006-0.518-0.27-0.561-0.321-0.994c0.138-0.186,0.331-0.289,0.382-0.564
		c-0.033-0.393-0.365-0.25-0.65-0.254c-0.02-0.076-0.023-0.137-0.02-0.193c0.024-0.215,0.213-0.303,0.344-0.428
		c0.08,0.059,0.123,0.156,0.17,0.268c0.174,0.047,0.265,0.016,0.459-0.006c0.073,0.033,0.127,0.094,0.174,0.166
		c0.096,0.148,0.159,0.352,0.231,0.547c-0.099,0.273-0.037,0.451,0.088,0.535c-0.05,1.381-0.239,2.725-0.554,4.021
		c-0.068,0.051-0.113,0.129-0.18,0.189C56.781,42.6,56.775,42.73,56.761,42.854L56.761,42.854z M30.257,28.158
		c-0.466-0.758-0.809,0.586-0.16,0.668c0.174,0.693,0.802,0.268,1.161,0.217c0.05-0.211,0.124-0.393,0.323-0.438
		c0.035-0.197-0.01-0.336-0.04-0.588C31.019,28.07,30.726,28.203,30.257,28.158L30.257,28.158z M49.639,44.836
		c-0.063,0.104-0.029,0.312-0.146,0.354c0.126,0.078,0.039,0.389,0.199,0.545c0.131,0.002,0.243,0.027,0.355-0.096
		C50.035,45.133,49.898,44.967,49.639,44.836L49.639,44.836z M24.054,33.973c-0.102-0.109-0.102-0.297-0.048-0.428
		c-0.423-0.436-0.717,0.424-0.677,1.016c0.264-0.041,0.447,0.057,0.628,0.227c0.211-0.125,0.411-0.016,0.567-0.072
		C24.355,34.469,24.413,33.82,24.054,33.973L24.054,33.973z M23.068,34.707c-0.033,0.33-0.322,0.5-0.576,0.422
		c0.08,0.412,0.43,0.051,0.648,0.035c0.009-0.127,0.075-0.273,0-0.426C23.111,34.736,23.103,34.697,23.068,34.707L23.068,34.707z"/>
</g>
</svg>
