<?xml version="1.0" ?><!DOCTYPE svg  PUBLIC '-//W3C//DTD SVG 1.1//EN'  'http://www.w3.org/Graphics/SVG/1.1/DTD/svg11.dtd' [
	<!ENTITY stroke_color "#000">
	<!ENTITY fill_color "#eee">
]>
<svg version="1.1" id="Layer_1" xmlns="http://www.w3.org/2000/svg" xmlns:xlink="http://www.w3.org/1999/xlink" x="0px" y="0px"
	 width="75px" height="75px" viewBox="0 0 75 75" enable-background="new 0 0 75 75" xml:space="preserve">
<g>
	<path fill="&stroke_color;" d="M12.796,64.897l-0.077-0.979c-0.014-0.169-0.027-1.479-0.027-1.65c0-3.915,3.185-7.1,7.1-7.1h2.077
		c3.916,0,7.101,3.185,7.101,7.1c0,0.013-0.008,1.416-0.028,1.657l-0.083,0.973H12.796z"/>
	<path fill="&fill_color;" d="M21.868,56.23c3.335,0,6.038,2.703,6.038,6.037c0,0.162-0.012,1.406-0.025,1.566H13.778
		c-0.013-0.16-0.024-1.404-0.024-1.566c0-3.334,2.703-6.037,6.037-6.037H21.868 M21.868,54.104h-2.077
		c-4.501,0-8.163,3.662-8.163,8.163c0,0.013,0.008,1.439,0.031,1.734l0.155,1.958h1.964h14.103h1.952l0.166-1.945
		c0.026-0.304,0.033-1.733,0.033-1.747C30.032,57.767,26.37,54.104,21.868,54.104L21.868,54.104z"/>
</g>
<g>
	<path fill="&stroke_color;" d="M29.797,64.897l-0.072-0.985c-0.012-0.168-0.026-1.474-0.026-1.644c0-3.915,3.186-7.1,7.101-7.1h2.076
		c3.915,0,7.101,3.185,7.101,7.1c0,0.171-0.014,1.481-0.027,1.65l-0.077,0.979H29.797z"/>
	<path fill="&fill_color;" d="M38.875,56.23c3.335,0,6.037,2.703,6.037,6.037c0,0.162-0.011,1.406-0.023,1.566H30.785
		c-0.012-0.16-0.023-1.404-0.023-1.566c0-3.334,2.702-6.037,6.037-6.037H38.875 M38.875,54.104h-2.076
		c-4.501,0-8.163,3.662-8.163,8.163c0,0.013,0.008,1.435,0.029,1.722l0.144,1.971h1.977h14.104h1.964l0.155-1.958
		c0.023-0.292,0.03-1.721,0.03-1.734C47.038,57.767,43.376,54.104,38.875,54.104L38.875,54.104z"/>
</g>
<g>
	<path fill="&stroke_color;" d="M46.137,64.897l-0.077-0.979c-0.014-0.169-0.028-1.479-0.028-1.65c0-3.915,3.186-7.1,7.102-7.1h2.076
		c3.915,0,7.1,3.185,7.1,7.1c0,0.17-0.014,1.476-0.025,1.644l-0.072,0.985H46.137z"/>
	<path fill="&fill_color;" d="M55.209,56.23c3.334,0,6.037,2.703,6.037,6.037c0,0.162-0.012,1.406-0.023,1.566H47.119
		c-0.013-0.16-0.024-1.404-0.024-1.566c0-3.334,2.702-6.037,6.038-6.037H55.209 M55.209,54.104h-2.076
		c-4.502,0-8.164,3.662-8.164,8.163c0,0.013,0.008,1.439,0.031,1.734l0.155,1.958h1.964h14.104h1.977l0.144-1.971
		c0.021-0.287,0.029-1.708,0.029-1.722C63.372,57.767,59.71,54.104,55.209,54.104L55.209,54.104z"/>
</g>
<g>
	<path fill="&stroke_color;" d="M12.796,46.897l-0.077-0.979c-0.014-0.169-0.027-1.479-0.027-1.65c0-3.915,3.185-7.1,7.1-7.1h2.077
		c3.916,0,7.101,3.185,7.101,7.1c0,0.013-0.008,1.416-0.028,1.657l-0.083,0.973H12.796z"/>
	<path fill="&fill_color;" d="M21.868,38.23c3.335,0,6.038,2.703,6.038,6.037c0,0.162-0.012,1.406-0.025,1.566H13.778
		c-0.013-0.16-0.024-1.404-0.024-1.566c0-3.334,2.703-6.037,6.037-6.037H21.868 M21.868,36.104h-2.077
		c-4.501,0-8.163,3.662-8.163,8.163c0,0.013,0.008,1.439,0.031,1.734l0.155,1.958h1.964h14.103h1.952l0.166-1.945
		c0.026-0.304,0.033-1.733,0.033-1.747C30.032,39.767,26.37,36.104,21.868,36.104L21.868,36.104z"/>
</g>
<g>
	<path fill="&stroke_color;" d="M29.797,46.897l-0.072-0.985c-0.012-0.168-0.026-1.474-0.026-1.644c0-3.915,3.186-7.1,7.101-7.1h2.076
		c3.915,0,7.101,3.185,7.101,7.1c0,0.171-0.014,1.481-0.027,1.65l-0.077,0.979H29.797z"/>
	<path fill="&fill_color;" d="M38.875,38.23c3.335,0,6.037,2.703,6.037,6.037c0,0.162-0.011,1.406-0.023,1.566H30.785
		c-0.012-0.16-0.023-1.404-0.023-1.566c0-3.334,2.702-6.037,6.037-6.037H38.875 M38.875,36.104h-2.076
		c-4.501,0-8.163,3.662-8.163,8.163c0,0.013,0.008,1.435,0.029,1.722l0.144,1.971h1.977h14.104h1.964l0.155-1.958
		c0.023-0.292,0.03-1.721,0.03-1.734C47.038,39.767,43.376,36.104,38.875,36.104L38.875,36.104z"/>
</g>
<g>
	<path fill="&stroke_color;" d="M46.137,46.897l-0.077-0.979c-0.014-0.169-0.028-1.479-0.028-1.65c0-3.915,3.186-7.1,7.102-7.1h2.076
		c3.915,0,7.1,3.185,7.1,7.1c0,0.17-0.014,1.476-0.025,1.644l-0.072,0.985H46.137z"/>
	<path fill="&fill_color;" d="M55.209,38.23c3.334,0,6.037,2.703,6.037,6.037c0,0.162-0.012,1.406-0.023,1.566H47.119
		c-0.013-0.16-0.024-1.404-0.024-1.566c0-3.334,2.702-6.037,6.038-6.037H55.209 M55.209,36.104h-2.076
		c-4.502,0-8.164,3.662-8.164,8.163c0,0.013,0.008,1.439,0.031,1.734l0.155,1.958h1.964h14.104h1.977l0.144-1.971
		c0.021-0.287,0.029-1.708,0.029-1.722C63.372,39.767,59.71,36.104,55.209,36.104L55.209,36.104z"/>
</g>
<g>
	<path fill="&stroke_color;" d="M12.796,28.286l-0.077-0.979c-0.014-0.169-0.027-1.479-0.027-1.65c0-3.915,3.185-7.1,7.1-7.1h2.077
		c3.916,0,7.101,3.185,7.101,7.1c0,0.013-0.008,1.416-0.028,1.657l-0.083,0.973H12.796z"/>
	<path fill="&fill_color;" d="M21.868,19.619c3.335,0,6.038,2.703,6.038,6.037c0,0.162-0.012,1.406-0.025,1.566H13.778
		c-0.013-0.16-0.024-1.404-0.024-1.566c0-3.334,2.703-6.037,6.037-6.037H21.868 M21.868,17.493h-2.077
		c-4.501,0-8.163,3.662-8.163,8.163c0,0.013,0.008,1.439,0.031,1.734l0.155,1.958h1.964h14.103h1.952l0.166-1.945
		c0.026-0.304,0.033-1.733,0.033-1.747C30.032,21.155,26.37,17.493,21.868,17.493L21.868,17.493z"/>
</g>
<g>
	<path fill="&stroke_color;" d="M29.797,28.286L29.725,27.3c-0.012-0.168-0.026-1.474-0.026-1.644c0-3.915,3.186-7.1,7.101-7.1h2.076
		c3.915,0,7.101,3.185,7.101,7.1c0,0.171-0.014,1.481-0.027,1.65l-0.077,0.979H29.797z"/>
	<path fill="&fill_color;" d="M38.875,19.619c3.335,0,6.037,2.703,6.037,6.037c0,0.162-0.011,1.406-0.023,1.566H30.785
		c-0.012-0.16-0.023-1.404-0.023-1.566c0-3.334,2.702-6.037,6.037-6.037H38.875 M38.875,17.493h-2.076
		c-4.501,0-8.163,3.662-8.163,8.163c0,0.013,0.008,1.435,0.029,1.722l0.144,1.971h1.977h14.104h1.964l0.155-1.958
		c0.023-0.292,0.03-1.721,0.03-1.734C47.038,21.155,43.376,17.493,38.875,17.493L38.875,17.493z"/>
</g>
<g>
	<path fill="&stroke_color;" d="M46.137,28.286l-0.077-0.979c-0.014-0.169-0.028-1.479-0.028-1.65c0-3.915,3.186-7.1,7.102-7.1h2.076
		c3.915,0,7.1,3.185,7.1,7.1c0,0.17-0.014,1.476-0.025,1.644l-0.072,0.985H46.137z"/>
	<path fill="&fill_color;" d="M55.209,19.619c3.334,0,6.037,2.703,6.037,6.037c0,0.162-0.012,1.406-0.023,1.566H47.119
		c-0.013-0.16-0.024-1.404-0.024-1.566c0-3.334,2.702-6.037,6.038-6.037H55.209 M55.209,17.493h-2.076
		c-4.502,0-8.164,3.662-8.164,8.163c0,0.013,0.008,1.439,0.031,1.734l0.155,1.958h1.964h14.104h1.977l0.144-1.971
		c0.021-0.287,0.029-1.708,0.029-1.722C63.372,21.155,59.71,17.493,55.209,17.493L55.209,17.493z"/>
</g>
<g>
	<path fill="&stroke_color;" d="M20.818,20.077c-2.75,0-4.987-2.236-4.987-4.985c0-2.751,2.237-4.989,4.987-4.989s4.987,2.238,4.987,4.989
		C25.806,17.84,23.568,20.077,20.818,20.077z"/>
	<path fill="&fill_color;" d="M20.818,11.166c2.167,0,3.924,1.758,3.924,3.926c0,2.166-1.757,3.922-3.924,3.922
		c-2.168,0-3.925-1.756-3.925-3.922C16.894,12.924,18.65,11.166,20.818,11.166 M20.818,9.04c-3.336,0-6.051,2.715-6.051,6.052
		c0,3.335,2.715,6.048,6.051,6.048s6.05-2.713,6.05-6.048C26.868,11.755,24.154,9.04,20.818,9.04L20.818,9.04z"/>
</g>
<g>
	<path fill="&stroke_color;" d="M37.825,20.077c-2.75,0-4.987-2.236-4.987-4.985c0-2.751,2.237-4.989,4.987-4.989s4.987,2.238,4.987,4.989
		C42.812,17.84,40.575,20.077,37.825,20.077z"/>
	<path fill="&fill_color;" d="M37.825,11.166c2.167,0,3.925,1.758,3.925,3.926c0,2.166-1.758,3.922-3.925,3.922S33.9,17.258,33.9,15.092
		C33.9,12.924,35.658,11.166,37.825,11.166 M37.825,9.04c-3.336,0-6.051,2.715-6.051,6.052c0,3.335,2.715,6.048,6.051,6.048
		s6.051-2.713,6.051-6.048C43.876,11.755,41.161,9.04,37.825,9.04L37.825,9.04z"/>
</g>
<g>
	<path fill="&stroke_color;" d="M20.818,38.688c-2.75,0-4.987-2.236-4.987-4.985c0-2.751,2.237-4.989,4.987-4.989s4.987,2.238,4.987,4.989
		C25.806,36.452,23.568,38.688,20.818,38.688z"/>
	<path fill="&fill_color;" d="M20.818,29.777c2.167,0,3.924,1.758,3.924,3.926c0,2.166-1.757,3.922-3.924,3.922
		c-2.168,0-3.925-1.756-3.925-3.922C16.894,31.535,18.65,29.777,20.818,29.777 M20.818,27.651c-3.336,0-6.051,2.715-6.051,6.052
		c0,3.335,2.715,6.048,6.051,6.048s6.05-2.713,6.05-6.048C26.868,30.366,24.154,27.651,20.818,27.651L20.818,27.651z"/>
</g>
<g>
	<path fill="&stroke_color;" d="M37.825,38.688c-2.75,0-4.987-2.236-4.987-4.985c0-2.751,2.237-4.989,4.987-4.989s4.987,2.238,4.987,4.989
		C42.812,36.452,40.575,38.688,37.825,38.688z"/>
	<path fill="&fill_color;" d="M37.825,29.777c2.167,0,3.925,1.758,3.925,3.926c0,2.166-1.758,3.922-3.925,3.922S33.9,35.869,33.9,33.703
		C33.9,31.535,35.658,29.777,37.825,29.777 M37.825,27.651c-3.336,0-6.051,2.715-6.051,6.052c0,3.335,2.715,6.048,6.051,6.048
		s6.051-2.713,6.051-6.048C43.876,30.366,41.161,27.651,37.825,27.651L37.825,27.651z"/>
</g>
<g>
	<path fill="&stroke_color;" d="M54.158,20.077c-2.75,0-4.987-2.236-4.987-4.985c0-2.751,2.237-4.989,4.987-4.989s4.987,2.238,4.987,4.989
		C59.146,17.84,56.908,20.077,54.158,20.077z"/>
	<path fill="&fill_color;" d="M54.158,11.166c2.168,0,3.925,1.758,3.925,3.926c0,2.166-1.757,3.922-3.925,3.922
		c-2.167,0-3.924-1.756-3.924-3.922C50.234,12.924,51.991,11.166,54.158,11.166 M54.158,9.04c-3.336,0-6.05,2.715-6.05,6.052
		c0,3.335,2.714,6.048,6.05,6.048s6.051-2.713,6.051-6.048C60.209,11.755,57.494,9.04,54.158,9.04L54.158,9.04z"/>
</g>
<g>
	<path fill="&stroke_color;" d="M54.158,38.688c-2.75,0-4.987-2.236-4.987-4.985c0-2.751,2.237-4.989,4.987-4.989s4.987,2.238,4.987,4.989
		C59.146,36.452,56.908,38.688,54.158,38.688z"/>
	<path fill="&fill_color;" d="M54.158,29.777c2.168,0,3.925,1.758,3.925,3.926c0,2.166-1.757,3.922-3.925,3.922
		c-2.167,0-3.924-1.756-3.924-3.922C50.234,31.535,51.991,29.777,54.158,29.777 M54.158,27.651c-3.336,0-6.05,2.715-6.05,6.052
		c0,3.335,2.714,6.048,6.05,6.048s6.051-2.713,6.051-6.048C60.209,30.366,57.494,27.651,54.158,27.651L54.158,27.651z"/>
</g>
<g>
	<path fill="&stroke_color;" d="M20.818,56.688c-2.75,0-4.987-2.236-4.987-4.985c0-2.751,2.237-4.989,4.987-4.989s4.987,2.238,4.987,4.989
		C25.806,54.452,23.568,56.688,20.818,56.688z"/>
	<path fill="&fill_color;" d="M20.818,47.777c2.167,0,3.924,1.758,3.924,3.926c0,2.166-1.757,3.922-3.924,3.922
		c-2.168,0-3.925-1.756-3.925-3.922C16.894,49.535,18.65,47.777,20.818,47.777 M20.818,45.651c-3.336,0-6.051,2.715-6.051,6.052
		c0,3.335,2.715,6.048,6.051,6.048s6.05-2.713,6.05-6.048C26.868,48.366,24.154,45.651,20.818,45.651L20.818,45.651z"/>
</g>
<g>
	<path fill="&stroke_color;" d="M37.825,56.688c-2.75,0-4.987-2.236-4.987-4.985c0-2.751,2.237-4.989,4.987-4.989s4.987,2.238,4.987,4.989
		C42.812,54.452,40.575,56.688,37.825,56.688z"/>
	<path fill="&fill_color;" d="M37.825,47.777c2.167,0,3.925,1.758,3.925,3.926c0,2.166-1.758,3.922-3.925,3.922S33.9,53.869,33.9,51.703
		C33.9,49.535,35.658,47.777,37.825,47.777 M37.825,45.651c-3.336,0-6.051,2.715-6.051,6.052c0,3.335,2.715,6.048,6.051,6.048
		s6.051-2.713,6.051-6.048C43.876,48.366,41.161,45.651,37.825,45.651L37.825,45.651z"/>
</g>
<g>
	<path fill="&stroke_color;" d="M54.158,56.688c-2.75,0-4.987-2.236-4.987-4.985c0-2.751,2.237-4.989,4.987-4.989s4.987,2.238,4.987,4.989
		C59.146,54.452,56.908,56.688,54.158,56.688z"/>
	<path fill="&fill_color;" d="M54.158,47.777c2.168,0,3.925,1.758,3.925,3.926c0,2.166-1.757,3.922-3.925,3.922
		c-2.167,0-3.924-1.756-3.924-3.922C50.234,49.535,51.991,47.777,54.158,47.777 M54.158,45.651c-3.336,0-6.05,2.715-6.05,6.052
		c0,3.335,2.714,6.048,6.05,6.048s6.051-2.713,6.051-6.048C60.209,48.366,57.494,45.651,54.158,45.651L54.158,45.651z"/>
</g>
</svg>
