<?xml version="1.0" ?><!DOCTYPE svg  PUBLIC '-//W3C//DTD SVG 1.1//EN'  'http://www.w3.org/Graphics/SVG/1.1/DTD/svg11.dtd' [
	<!ENTITY stroke_color "#000">
	<!ENTITY fill_color "#eee">
]>
<svg version="1.1" id="Layer_1" xmlns="http://www.w3.org/2000/svg" xmlns:xlink="http://www.w3.org/1999/xlink" x="0px" y="0px"
	 width="75px" height="75px" viewBox="0 0 75 75" enable-background="new 0 0 75 75" xml:space="preserve">
<g>
	<g>
		<path fill="&stroke_color;" d="M34.432,61.727c-11.769,0-21.343-9.573-21.343-21.341c0-10.922,8.518-20.258,19.392-21.255
			c0.038-0.003,0.075-0.005,0.112-0.005c0.304,0,0.598,0.112,0.825,0.317c0.255,0.231,0.402,0.558,0.405,0.901l0.184,20.043
			c0.002,0.234,0.192,0.424,0.425,0.424h20.044c0.344,0,0.672,0.144,0.905,0.396c0.233,0.253,0.35,0.592,0.322,0.935
			C54.802,53.124,45.459,61.727,34.432,61.727z"/>
		<path fill="&fill_color;" d="M32.593,20.356l0.184,20.043c0.007,0.91,0.747,1.643,1.655,1.643h20.044
			c-0.846,10.317-9.511,18.454-20.044,18.454c-11.089,0-20.112-9.022-20.112-20.11C14.319,29.952,22.376,21.293,32.593,20.356
			 M32.593,17.896c-0.075,0-0.149,0.003-0.225,0.01c-11.501,1.055-20.51,10.929-20.51,22.48c0,12.446,10.126,22.571,22.573,22.571
			c11.663,0,21.545-9.099,22.497-20.714c0.057-0.686-0.177-1.363-0.643-1.869c-0.466-0.506-1.123-0.793-1.81-0.793H35.23
			l-0.176-19.247c-0.006-0.688-0.3-1.342-0.811-1.803C33.789,18.12,33.2,17.896,32.593,17.896L32.593,17.896z"/>
	</g>
	<g>
		<path fill="&stroke_color;" d="M42.28,34.135c-0.675,0-1.225-0.544-1.23-1.22l-0.166-18.4c-0.003-0.344,0.138-0.673,0.389-0.908
			c0.229-0.215,0.53-0.333,0.842-0.333c0.03,0,0.06,0.001,0.089,0.003c10.385,0.756,18.855,9.15,19.704,19.527
			c0.028,0.343-0.089,0.682-0.322,0.935s-0.561,0.396-0.905,0.396H42.28z"/>
		<path fill="&fill_color;" d="M42.114,14.504c9.854,0.717,17.763,8.568,18.566,18.4h-18.4L42.114,14.504 M42.114,12.043
			c-0.624,0-1.226,0.236-1.684,0.666c-0.501,0.471-0.783,1.13-0.777,1.817l0.166,18.4c0.012,1.351,1.11,2.438,2.461,2.438h18.4
			c0.688,0,1.344-0.287,1.81-0.793c0.466-0.506,0.699-1.184,0.644-1.868c-0.897-10.977-9.857-19.855-20.841-20.655
			C42.233,12.045,42.173,12.043,42.114,12.043L42.114,12.043z"/>
	</g>
</g>
</svg>
