<?xml version="1.0" ?><!DOCTYPE svg  PUBLIC '-//W3C//DTD SVG 1.1//EN'  'http://www.w3.org/Graphics/SVG/1.1/DTD/svg11.dtd' [
	<!ENTITY stroke_color "#000">
	<!ENTITY fill_color "#eee">
]>
<svg version="1.1" id="Layer_1" xmlns="http://www.w3.org/2000/svg" xmlns:xlink="http://www.w3.org/1999/xlink" x="0px" y="0px"
	 width="75px" height="75px" viewBox="0 0 75 75" enable-background="new 0 0 75 75" xml:space="preserve">
<g>
	<g>
		<path fill="&stroke_color;" d="M37.5,56.539c-7.026,0-13.394-3.812-16.733-9.981c-7.771-2.073-12.042-5.466-12.042-9.579
			c0-4.252,4.534-7.713,12.779-9.767c3.53-5.488,9.478-8.75,15.997-8.75s12.467,3.262,15.997,8.75
			c8.245,2.054,12.779,5.515,12.779,9.767c0,4.113-4.272,7.506-12.043,9.579C50.894,52.727,44.526,56.539,37.5,56.539z
			 M18.845,33.699c-3.845,1.497-4.671,2.946-4.671,3.279c0,0.363,0.981,2.051,5.782,3.684c4.643,1.579,10.874,2.448,17.544,2.448
			c6.67,0,12.901-0.87,17.544-2.448c4.802-1.633,5.783-3.321,5.783-3.684c0-0.333-0.827-1.782-4.673-3.279
			c0.255,1.25,0.383,2.521,0.383,3.801c0,0.492-0.025,1.001-0.082,1.652l-0.066,0.754l-0.686,0.172
			c-4.86,1.647-11.324,2.554-18.204,2.554c-6.893,0-13.367-0.91-18.229-2.562l-0.663-0.208l-0.064-0.709
			c-0.039-0.443-0.083-1.032-0.083-1.652C18.461,36.22,18.59,34.948,18.845,33.699z"/>
	</g>
	<g>
		<path fill="&fill_color;" d="M37.5,19.524c6.495,0,12.167,3.456,15.326,8.617c7.131,1.709,12.387,4.693,12.387,8.837
			c0,4.011-4.922,6.936-11.703,8.669c-2.971,5.829-9.018,9.828-16.01,9.828s-13.039-3.999-16.011-9.828
			c-6.78-1.733-11.702-4.658-11.702-8.669c0-4.144,5.256-7.128,12.387-8.837C25.333,22.98,31.006,19.524,37.5,19.524 M37.5,41.569
			c-6.781,0-13.134-0.891-17.887-2.506c-0.003-0.002-0.007-0.003-0.01-0.004c-0.045-0.515-0.079-1.033-0.079-1.56
			c0-1.898,0.299-3.727,0.845-5.444c-0.25,0.079-0.514,0.151-0.756,0.233c-4.801,1.632-6.503,3.546-6.503,4.689
			s1.702,3.058,6.503,4.69c4.753,1.616,11.105,2.505,17.887,2.505s13.133-0.889,17.887-2.505c4.801-1.633,6.504-3.547,6.504-4.69
			s-1.703-3.058-6.504-4.689c-0.242-0.082-0.506-0.154-0.756-0.233c0.545,1.718,0.844,3.546,0.844,5.444
			c0,0.526-0.033,1.045-0.078,1.56c-0.004,0.001-0.006,0.002-0.01,0.004C50.633,40.679,44.281,41.569,37.5,41.569 M37.5,17.398
			c-6.743,0-12.906,3.304-16.659,8.884c-8.509,2.201-13.18,5.983-13.18,10.696c0,3.249,2.18,7.662,12.395,10.487
			c3.582,6.276,10.179,10.136,17.444,10.136c7.266,0,13.863-3.859,17.443-10.136c10.215-2.825,12.396-7.238,12.396-10.487
			c0-4.713-4.671-8.495-13.18-10.696C50.406,20.703,44.243,17.398,37.5,17.398L37.5,17.398z M57.572,38.454
			c0.019-0.341,0.028-0.654,0.028-0.954c0-0.681-0.035-1.36-0.103-2.036c1.218,0.629,1.868,1.183,2.146,1.514
			C59.371,37.303,58.742,37.841,57.572,38.454L57.572,38.454z M15.357,36.979c0.278-0.331,0.927-0.885,2.145-1.514
			c-0.068,0.675-0.103,1.354-0.103,2.035c0,0.333,0.012,0.656,0.029,0.954C16.258,37.841,15.63,37.303,15.357,36.979L15.357,36.979z
			"/>
	</g>
</g>
</svg>
