<?xml version="1.0" ?><!DOCTYPE svg  PUBLIC '-//W3C//DTD SVG 1.1//EN'  'http://www.w3.org/Graphics/SVG/1.1/DTD/svg11.dtd' [
	<!ENTITY stroke_color "#000">
	<!ENTITY fill_color "#eee">
]>
<svg version="1.1" id="Layer_1" xmlns="http://www.w3.org/2000/svg" xmlns:xlink="http://www.w3.org/1999/xlink" x="0px" y="0px"
	 width="75px" height="75px" viewBox="0 0 75 75" enable-background="new 0 0 75 75" xml:space="preserve">
<g>
	<g>
		<path fill-rule="evenodd" clip-rule="evenodd" fill="&stroke_color;" d="M31.179,40.165c-0.227,0-0.454-0.025-0.677-0.074
			c-0.812-0.177-1.504-0.66-1.947-1.359c-0.437-0.687-0.577-1.497-0.397-2.283c0.324-1.422,1.598-2.455,3.027-2.455
			c0.222,0,0.444,0.025,0.661,0.074c1.627,0.372,2.681,2.008,2.349,3.647C33.905,39.135,32.637,40.165,31.179,40.165L31.179,40.165z
			"/>
		<path fill="&fill_color;" d="M31.185,35.057c0.141,0,0.283,0.016,0.426,0.048c1.052,0.24,1.757,1.338,1.542,2.399
			c-0.193,0.949-1.032,1.598-1.974,1.598c-0.147,0-0.298-0.016-0.448-0.049c-1.089-0.237-1.78-1.304-1.537-2.367
			C29.414,35.721,30.263,35.057,31.185,35.057 M31.185,32.931c-1.921,0-3.63,1.38-4.063,3.282c-0.244,1.064-0.054,2.162,0.536,3.089
			c0.597,0.941,1.527,1.59,2.62,1.828c0.293,0.064,0.598,0.098,0.901,0.098c1.961,0,3.667-1.388,4.057-3.3
			c0.446-2.202-0.968-4.397-3.151-4.896C31.788,32.964,31.485,32.931,31.185,32.931L31.185,32.931z"/>
	</g>
	<g>
		<path fill-rule="evenodd" clip-rule="evenodd" fill="&stroke_color;" d="M42.213,31.998c-0.672,0-1.342-0.174-1.937-0.503
			c-0.931-0.515-1.603-1.36-1.891-2.378c-0.282-0.997-0.16-2.039,0.345-2.933c0.722-1.277,2.068-2.069,3.514-2.069
			c0.659,0,1.309,0.17,1.879,0.491c1.828,1.032,2.536,3.473,1.545,5.33C44.989,31.207,43.665,31.998,42.213,31.998L42.213,31.998z"
			/>
		<path fill="&fill_color;" d="M42.244,25.176c0.464,0,0.931,0.114,1.356,0.354c1.339,0.756,1.855,2.543,1.13,3.903
			c-0.512,0.959-1.494,1.501-2.518,1.501c-0.479,0-0.968-0.119-1.421-0.37c-1.39-0.769-1.9-2.505-1.136-3.859
			C40.207,25.73,41.221,25.176,42.244,25.176 M42.244,23.05c-1.828,0-3.528,1-4.438,2.608c-0.646,1.145-0.804,2.475-0.443,3.747
			c0.366,1.293,1.219,2.366,2.4,3.02c0.751,0.416,1.599,0.636,2.45,0.636c1.846,0,3.529-1.006,4.394-2.626
			c1.276-2.394,0.397-5.424-1.961-6.756C43.916,23.268,43.086,23.05,42.244,23.05L42.244,23.05z"/>
	</g>
	<g>
		<path fill-rule="evenodd" clip-rule="evenodd" fill="&stroke_color;" d="M32.834,65.145c-2.453,0-4.45-1.995-4.45-4.448v-4.528
			c-2.11-0.015-4.35-0.099-4.778-0.115c-0.099,0.008-0.271,0.019-0.488,0.019c-2.271,0-3.683-1.129-3.683-2.946
			c0-1.762-0.139-8.53-0.193-11.127l-4.377-0.075l0.218-1.228c0.019-0.104,1.878-10.529,2.874-14.942
			c1.147-5.083,6.979-13.498,15.85-15.412c1.498-0.323,3.018-0.487,4.517-0.487c8.618,0,15.199,5.248,18.216,9.741
			c3.737,5.569,3.472,10.705,3.329,13.464c-0.131,2.554-2.838,9.466-8.766,14.906v12.73c0,2.453-1.997,4.448-4.45,4.448H32.834z
			 M28.261,39.43c0.927,0.221,1.754,1.005,2.041,1.867c0.478-0.594,1.208-0.943,2.009-0.943c0.425,0,0.837,0.103,1.2,0.295
			c-0.061-0.578,0.092-1.168,0.435-1.668c0.36-0.527,0.872-0.879,1.439-1.001c-0.486-0.368-0.815-0.929-0.938-1.584
			c-0.113-0.604-0.034-1.177,0.217-1.63c-0.059,0.005-0.117,0.008-0.176,0.008c-1.007,0-2.18-0.759-2.495-1.808
			c-0.531,0.614-1.381,0.893-2.063,0.893c-0.408,0-0.779-0.088-1.094-0.258c0.061,0.543-0.101,1.124-0.464,1.643
			c-0.353,0.502-0.837,0.86-1.355,1.016c0.426,0.355,0.726,0.873,0.844,1.467c0.121,0.608,0.038,1.213-0.22,1.702
			c0.064-0.007,0.123-0.011,0.172-0.014L28.261,39.43z M41.343,33.279c1.1,0,2.102,0.527,2.683,1.411
			c0.048-0.009,0.118-0.026,0.219-0.056c0.037-0.011,0.067-0.021,0.092-0.03c0-0.011,0-0.024-0.001-0.037
			c-0.032-0.771,0.28-1.559,0.858-2.161c0.589-0.615,1.377-0.968,2.162-0.968c0.215,0,0.428,0.027,0.634,0.08
			c0.057,0.014,0.099,0.022,0.129,0.026c0.024-0.033,0.062-0.088,0.11-0.176c0.066-0.116,0.093-0.187,0.104-0.222
			c-0.017-0.01-0.054-0.056-0.125-0.123c-0.613-0.57-0.916-1.516-0.811-2.529c0.103-0.973,0.551-1.765,1.23-2.173
			c0.09-0.054,0.141-0.093,0.167-0.117c-0.009-0.018-0.018-0.071-0.04-0.15c-0.019-0.062-0.034-0.106-0.046-0.137
			c-0.025-0.002-0.245-0.001-0.245-0.001c-0.826,0-1.69-0.481-2.312-1.287c-0.606-0.788-0.838-1.681-0.636-2.451
			c0.013-0.048,0.021-0.086,0.026-0.116c-0.007-0.004-0.204-0.106-0.264-0.133c-0.007,0.007-0.013,0.014-0.02,0.022
			c-0.502,0.581-1.323,0.914-2.252,0.914c-1.092,0-2.069-0.455-2.551-1.186c-0.076-0.116-0.127-0.182-0.158-0.22
			c-0.015,0.003-0.031,0.007-0.051,0.012c-0.133,0.036-0.201,0.066-0.231,0.083c0.007,0.017-0.005,0.096-0.002,0.245
			c0.016,0.686-0.282,1.376-0.839,1.946c-0.639,0.653-1.509,1.043-2.33,1.043c-0.211,0-0.418-0.026-0.615-0.077
			c-0.001,0-0.046,0.069-0.075,0.123c-0.04,0.074-0.088,0.174-0.087,0.174c0.653,0.584,0.986,1.531,0.893,2.535
			c-0.095,1.02-0.604,1.9-1.36,2.357c-0.013,0.008-0.023,0.015-0.033,0.021c0.006,0.027,0.015,0.062,0.029,0.105
			c0.025,0.083,0.048,0.151,0.068,0.206c0.081-0.008,0.147-0.011,0.213-0.011c0.276,0,0.521,0.055,0.683,0.092l0.207,0.028
			l0.271,0.124c1.203,0.696,2,2.314,1.761,3.559c0.044,0.026,0.28,0.151,0.313,0.167C39.737,33.585,40.507,33.279,41.343,33.279z"/>
		<path fill="&fill_color;" d="M38.322,10.918c7.975,0,14.344,4.817,17.333,9.271c3.509,5.228,3.295,10.024,3.15,12.817
			c-0.122,2.387-2.818,9.211-8.779,14.499c0.002,0.036,0.012,0.069,0.012,0.106v3.938v5.208v3.939c0,1.869-1.516,3.385-3.387,3.385
			h-5.8h-2.218h-5.8c-1.87,0-3.387-1.516-3.387-3.385v-5.59c-0.149,0.001-0.301,0.001-0.455,0.001c-2.492,0-5.416-0.12-5.416-0.12
			s-0.183,0.021-0.459,0.021c-0.858,0-2.62-0.205-2.62-1.883c0-2.22-0.215-12.173-0.215-12.173l-4.153-0.071
			c0,0,1.861-10.454,2.864-14.895c1.002-4.439,6.403-12.744,15.037-14.607C35.504,11.063,36.937,10.918,38.322,10.918
			 M36.846,23.724c-0.119,0-0.235-0.014-0.348-0.043c-0.134-0.035-0.254-0.051-0.362-0.051c-0.434,0-0.682,0.267-0.915,0.697
			c-0.298,0.548-0.446,0.952,0.141,1.475c0.873,0.78,0.668,2.598-0.31,3.188c-0.58,0.349-0.658,0.761-0.469,1.358
			c0.166,0.53,0.34,0.966,0.929,0.966c0.069,0,0.145-0.006,0.226-0.019c0.047-0.007,0.094-0.011,0.141-0.011
			c0.237,0,0.475,0.081,0.629,0.102c0.826,0.478,1.419,1.655,1.244,2.463c-0.151,0.695,0.246,0.964,0.761,1.229
			c0.248,0.128,0.464,0.23,0.682,0.23c0.206,0,0.413-0.092,0.649-0.34c0.401-0.424,0.95-0.626,1.5-0.626
			c0.699,0,1.399,0.326,1.8,0.939c0.237,0.364,0.498,0.483,0.794,0.483c0.187,0,0.387-0.047,0.604-0.11
			c0.591-0.174,0.886-0.429,0.856-1.132c-0.044-1.049,0.953-2.022,1.958-2.022c0.124,0,0.248,0.015,0.37,0.046
			c0.168,0.043,0.315,0.064,0.446,0.064c0.454,0,0.719-0.251,0.983-0.722c0.365-0.647,0.354-1.106-0.223-1.644
			c-0.762-0.709-0.607-2.503,0.242-3.013c0.616-0.37,0.805-0.763,0.602-1.472c-0.191-0.67-0.503-0.911-1.17-0.911
			c-0.033,0-0.068,0-0.104,0.002c-0.013,0-0.025,0-0.038,0c-1.04,0-2.173-1.441-1.919-2.404c0.163-0.621,0.056-1.031-0.528-1.339
			c-0.29-0.154-0.548-0.278-0.805-0.278c-0.245,0-0.488,0.114-0.757,0.425c-0.32,0.371-0.881,0.546-1.447,0.546
			c-0.676,0-1.36-0.248-1.662-0.707c-0.278-0.422-0.532-0.708-0.987-0.708c-0.115,0-0.243,0.019-0.387,0.057
			c-0.768,0.206-1.038,0.566-1.02,1.378C38.974,22.779,37.832,23.724,36.846,23.724 M29.929,32.796c-0.28,0-0.543-0.07-0.724-0.223
			c-0.215-0.18-0.402-0.306-0.622-0.306c-0.129,0-0.269,0.043-0.432,0.145c-0.476,0.291-0.585,0.588-0.41,1.131
			c0.231,0.716-0.522,1.715-1.278,1.741c-0.486,0.018-0.642,0.271-0.729,0.69c-0.09,0.428-0.108,0.729,0.39,0.963
			c0.744,0.35,0.971,1.613,0.431,2.205c-0.319,0.352-0.289,0.645-0.042,1.008c0.181,0.269,0.353,0.493,0.632,0.493
			c0.097,0,0.207-0.027,0.334-0.087c0.18-0.086,0.406-0.071,0.536-0.092c0.65,0.155,1.285,0.827,1.329,1.406
			c0.038,0.497,0.359,0.6,0.758,0.674c0.12,0.023,0.23,0.042,0.331,0.042c0.215,0,0.39-0.083,0.542-0.382
			c0.259-0.509,0.798-0.787,1.337-0.787c0.338,0,0.676,0.108,0.945,0.336c0.163,0.139,0.311,0.194,0.452,0.194
			c0.188,0,0.366-0.096,0.562-0.223c0.363-0.234,0.511-0.465,0.35-0.933c-0.27-0.782,0.364-1.764,1.171-1.795
			c0.54-0.021,0.72-0.251,0.829-0.729c0.115-0.51,0.015-0.816-0.479-1.061c-0.654-0.324-0.91-1.562-0.441-2.075
			c0.341-0.372,0.39-0.674,0.111-1.11c-0.191-0.298-0.38-0.433-0.64-0.433c-0.117,0-0.248,0.027-0.4,0.078
			c-0.089,0.03-0.185,0.044-0.283,0.044c-0.673,0-1.495-0.652-1.514-1.269c-0.016-0.45-0.171-0.705-0.624-0.795
			c-0.145-0.029-0.276-0.052-0.398-0.052c-0.253,0-0.459,0.101-0.623,0.463C31.122,32.517,30.489,32.796,29.929,32.796
			 M38.322,8.792c-1.574,0-3.169,0.172-4.74,0.511c-9.324,2.012-15.455,10.867-16.663,16.217c-1.002,4.437-2.807,14.562-2.883,14.99
			l-0.438,2.456l2.494,0.042l2.106,0.036c0.063,3.032,0.172,8.527,0.172,10.083c0,1.996,1.468,4.009,4.746,4.009
			c0.209,0,0.383-0.008,0.508-0.018c0.463,0.018,2.008,0.075,3.696,0.102v3.477c0,3.039,2.473,5.511,5.513,5.511h5.8h2.218h5.8
			c3.04,0,5.513-2.472,5.513-5.511v-3.939V51.55v-3.121c5.717-5.408,8.608-12.248,8.765-15.315
			c0.149-2.881,0.427-8.248-3.508-14.111C54.258,14.293,47.358,8.792,38.322,8.792L38.322,8.792z M37.785,25.731
			c0.79-0.197,1.553-0.632,2.151-1.245c0.339-0.347,0.607-0.731,0.799-1.138c0.644,0.373,1.428,0.579,2.272,0.579
			c0.53,0,1.038-0.086,1.5-0.248c0.146,0.552,0.416,1.095,0.803,1.598c0.448,0.582,1.003,1.035,1.603,1.327
			c-0.307,0.513-0.503,1.117-0.572,1.778c-0.077,0.732,0.015,1.444,0.253,2.07c-0.804,0.166-1.566,0.589-2.168,1.217
			c-0.338,0.353-0.608,0.755-0.803,1.184c-0.668-0.412-1.454-0.638-2.28-0.638c-0.551,0-1.082,0.101-1.571,0.294
			c-0.305-1.198-1.109-2.335-2.201-2.966l-0.127-0.073c0.312-0.539,0.514-1.164,0.576-1.831
			C38.082,26.972,37.997,26.318,37.785,25.731L37.785,25.731z M29.929,34.922c0.562,0,1.185-0.131,1.753-0.408
			c0.449,0.506,1.038,0.894,1.658,1.115c-0.021,0.312,0,0.635,0.062,0.963c0.069,0.371,0.188,0.722,0.351,1.042
			c-0.258,0.211-0.489,0.462-0.684,0.747c-0.198,0.289-0.351,0.6-0.457,0.922c-0.1-0.008-0.199-0.012-0.3-0.012
			c-0.617,0-1.205,0.148-1.722,0.419c-0.435-0.511-0.998-0.927-1.622-1.17c0.023-0.334,0.003-0.677-0.065-1.02
			c-0.066-0.333-0.174-0.649-0.318-0.941c0.243-0.208,0.465-0.451,0.657-0.725c0.209-0.299,0.371-0.614,0.482-0.938
			C29.792,34.92,29.86,34.922,29.929,34.922L29.929,34.922z"/>
	</g>
</g>
</svg>
