<?xml version="1.0" ?><!DOCTYPE svg  PUBLIC '-//W3C//DTD SVG 1.1//EN'  'http://www.w3.org/Graphics/SVG/1.1/DTD/svg11.dtd' [
	<!ENTITY stroke_color "#000">
	<!ENTITY fill_color "#eee">
]>
<svg version="1.1" id="Layer_1" xmlns="http://www.w3.org/2000/svg" xmlns:xlink="http://www.w3.org/1999/xlink" x="0px" y="0px"
	 width="75px" height="75px" viewBox="0 0 75 75" enable-background="new 0 0 75 75" xml:space="preserve">
<g>
	<g>
		<path fill="&stroke_color;" d="M30.102,60.11c-0.006,0-0.154,0.006-0.326,0.006c-0.373,0-0.612-0.023-0.802-0.079
			c-0.083-0.023-0.348-0.099-0.927-0.515l-14.932-9.329c-0.491-0.25-1.86-0.987-2.349-1.508c-0.829-0.885-0.814-2.147-0.81-2.289
			l0-28.315c0.002-0.158,0.042-1.446,0.877-2.302c0.884-0.907,2.058-0.973,2.189-0.978l34.175,0.043
			c1.297,0.033,3.188,1.004,3.188,3.546c0,0-0.001,24.726-0.002,24.744l13.003,8.64c0.105,0.07,2.56,1.753,1.306,5.48
			c-0.728,2.17-2.649,2.942-4.203,2.942L30.102,60.11z M18.702,22.652c-0.235,0-0.427,0.192-0.427,0.427v17.03
			c0,0.235,0.191,0.427,0.427,0.427h23.312c0.235,0,0.426-0.191,0.426-0.427V23.08c0-0.235-0.191-0.427-0.426-0.427H18.702z"/>
	</g>
	<g>
		<path fill="&fill_color;" d="M13.059,15.865l34.137,0.044c0,0,2.127,0.055,2.127,2.483c0,2.428,0,24.696,0,24.696
			s-0.025,0.395,0.024,0.548c0.042,0.129,0.31,0.297,0.31,0.297l13.143,8.729c0,0,1.895,1.259,0.887,4.256
			c-0.706,2.104-2.755,2.219-3.196,2.219c-0.055,0-0.084-0.002-0.084-0.002l-30.308-0.087c0,0-0.147,0.006-0.321,0.006
			c-0.187,0-0.405-0.007-0.506-0.036c-0.175-0.05-0.604-0.357-0.604-0.357l-14.988-9.367c0,0-1.721-0.89-2.138-1.334
			c-0.552-0.589-0.522-1.528-0.522-1.528V18.082c0,0,0.013-0.983,0.575-1.56C12.206,15.894,13.059,15.865,13.059,15.865
			 M18.702,41.6h23.312c0.822,0,1.489-0.667,1.489-1.49V23.08c0-0.822-0.667-1.49-1.489-1.49H18.702c-0.823,0-1.49,0.668-1.49,1.49
			v17.03C17.212,40.933,17.878,41.6,18.702,41.6 M13.023,13.739l-0.038,0.001c-0.285,0.01-1.764,0.118-2.914,1.297
			c-1.099,1.127-1.175,2.71-1.179,3.017v28.355c-0.006,0.392,0.047,1.882,1.097,3.003c0.537,0.571,1.712,1.247,2.634,1.728
			l14.862,9.289c0.691,0.487,1.06,0.592,1.201,0.633c0.286,0.083,0.604,0.117,1.088,0.117c0.15,0,0.285-0.003,0.356-0.006
			l30.227,0.087c0.034,0.001,0.077,0.002,0.131,0.002c1.836,0,4.302-0.961,5.211-3.668c1.206-3.585-0.518-5.9-1.726-6.703
			l-12.527-8.32V18.392c0-3.302-2.511-4.565-4.198-4.609l-0.026,0h-0.026l-34.137-0.044H13.023L13.023,13.739z M19.338,23.715
			h22.039v15.758H19.338V23.715L19.338,23.715z"/>
	</g>
</g>
</svg>
