<?xml version="1.0" ?><!DOCTYPE svg  PUBLIC '-//W3C//DTD SVG 1.1//EN'  'http://www.w3.org/Graphics/SVG/1.1/DTD/svg11.dtd' [
	<!ENTITY stroke_color "#000">
	<!ENTITY fill_color "#eee">
]>
<svg version="1.1" id="Layer_1" xmlns="http://www.w3.org/2000/svg" xmlns:xlink="http://www.w3.org/1999/xlink" x="0px" y="0px"
	 width="75px" height="75px" viewBox="0 0 75 75" enable-background="new 0 0 75 75" xml:space="preserve">
<g>
	<path fill-rule="evenodd" clip-rule="evenodd" fill="&stroke_color;" d="M28.254,60.43c-0.473,0-1.369-0.175-2.051-1.343
		c-0.521-0.894-0.914-1.837-1.294-2.75l-1.216-2.893c-3.487-8.292-6.974-16.581-10.439-24.882c-1.075-2.577-2.117-5.107-3.046-7.735
		c-0.5-1.413-1.347-2.008-2.923-2.054c-0.662-0.02-1.565-0.452-1.932-1.14c-0.365-0.684-0.376-1.405-0.032-1.979
		c0.359-0.6,1.047-0.945,1.888-0.946c0,0,10.826-0.001,13.464-0.005c1.63,0,2.027,0.946,2.074,1.739
		c0.078,1.346-0.663,2.245-1.933,2.347c-0.394,0.032-0.788,0.053-1.183,0.074c-0.493,0.026-0.986,0.052-1.477,0.101
		c-0.108,0.011-0.187,0.029-0.24,0.046c0.005,0.022,0.013,0.049,0.024,0.081c0.663,1.943,1.465,4.228,2.39,6.449
		c2.535,6.091,5.099,12.169,7.662,18.247l1.966,4.666c0.126-0.276,1.663-3.656,1.663-3.656c1.113-2.454,2.226-4.907,3.365-7.35
		c0.136-0.292,0.125-0.416,0.022-0.642c-1.398-3.075-2.791-6.151-4.184-9.228l-2.671-5.894c-0.133-0.295-0.276-0.586-0.419-0.876
		c-0.167-0.341-0.334-0.683-0.489-1.03c-0.276-0.62-0.682-0.907-1.401-0.989c-0.752-0.085-1.377-0.475-1.714-1.068
		c-0.341-0.602-0.353-1.354-0.031-2.062c0.268-0.599,0.976-0.931,1.504-0.936c1.63-0.009,3.255-0.015,4.88-0.015
		c1.698,0,3.396,0.006,5.094,0.02c0.6,0.003,1.137,0.431,1.337,0.657c0.326,0.368,0.336,0.745,0.313,0.936
		c0,0.055,0.018,0.127,0.03,0.2c0.063,0.389,0.257,1.574-0.968,2.155c-0.335,0.16-0.67,0.209-0.939,0.249
		c0,0-0.278,0.045-0.333,0.057c0.013,0.037,0.028,0.08,0.047,0.127c0.595,1.503,1.26,3.018,1.903,4.482l0.5,1.143
		c0.53,1.219,1.068,2.433,1.627,3.695l0.083-0.181c1.128-2.465,2.255-4.929,3.364-7.404c0.218-0.486,0.376-0.976,0.471-1.456
		c0.037-0.189,0.019-0.286,0.01-0.305c-0.015-0.017-0.113-0.083-0.346-0.128c-0.174-0.034-0.353-0.058-0.532-0.083l-0.308-0.044
		c-0.312-0.048-1.251-0.195-1.749-0.984c-0.333-0.529-0.377-1.173-0.137-1.972c0.201-0.668,0.97-1.255,1.645-1.255
		c2.235,0,4.469,0.025,6.704,0.05l2.591,0.027c0.549,0.005,0.985,0.175,1.295,0.506c0.464,0.495,0.431,1.123,0.413,1.461
		c-0.003,0.06-0.008,0.119-0.006,0.174c0.021,0.603-0.145,1.091-0.491,1.45c-0.23,0.238-0.648,0.521-1.334,0.521l-0.149-0.002
		c-0.693,0-1.136,0.29-1.478,0.97c-0.739,1.47-1.484,2.938-2.229,4.407c-0.906,1.785-1.812,3.57-2.708,5.36
		c-0.869,1.733-1.628,3.322-2.321,4.858c-0.022,0.055-0.029,0.194-0.012,0.251c2.013,4.606,4.059,9.21,6.105,13.814l0.028,0.064
		c3.504-9.157,7.004-18.315,10.5-27.475c0.111-0.291,0.191-0.627,0.264-0.946c0.068-0.298,0.033-0.561-0.102-0.762
		c-0.136-0.203-0.372-0.337-0.68-0.388c-0.27-0.044-0.545-0.062-0.821-0.083c-0.317-0.023-0.634-0.047-0.947-0.095l-0.112-0.016
		c-0.455-0.065-1.078-0.154-1.559-0.575c-0.56-0.492-0.744-1.313-0.732-1.868c0.027-1.004,1.176-1.473,1.307-1.523
		c0.498-0.192,1.019-0.217,1.417-0.217c2.447-0.006,4.896-0.006,7.344-0.007l4.021-0.001c0.393,0,1.051,0,1.549,0.512
		c0.331,0.34,0.491,0.812,0.475,1.4c-0.04,1.539-0.33,2.202-2.027,2.316c-1.943,0.129-3.221,1.133-4.021,3.158
		c-2.668,6.747-5.358,13.487-8.048,20.227l-0.181,0.454c-1.919,4.812-3.844,9.622-5.787,14.425
		c-0.256,0.631-0.601,1.271-1.026,1.901c-0.797,1.181-1.716,1.357-2.193,1.357c-0.491,0-1.432-0.185-2.222-1.423
		c-0.415-0.65-0.792-1.387-1.185-2.318c-1.398-3.314-2.785-6.632-4.172-9.949l-1.27-3.035c-0.429,0.969-0.848,1.91-1.274,2.848
		l-0.544,1.2c-1.447,3.194-2.895,6.388-4.375,9.567c-0.368,0.79-0.86,1.555-1.422,2.211C29.469,60.254,28.74,60.43,28.254,60.43z"/>
	<g>
		<path fill="&fill_color;" d="M67.905,15.633c0.527,0,0.983,0.024,0.962,0.82c-0.03,1.152-0.036,1.217-1.036,1.284
			c-2.505,0.167-4.041,1.557-4.938,3.827c-2.728,6.897-5.479,13.788-8.228,20.678c-1.919,4.811-3.843,9.619-5.785,14.42
			c-0.241,0.596-0.562,1.172-0.922,1.705c-0.399,0.592-0.857,0.889-1.312,0.889c-0.465,0-0.929-0.31-1.325-0.932
			c-0.433-0.678-0.789-1.418-1.102-2.16c-2.003-4.749-3.984-9.507-5.975-14.261c-0.111-0.267-0.245-0.522-0.442-0.94
			c-0.789,1.773-1.506,3.411-2.245,5.039c-1.628,3.591-3.25,7.184-4.915,10.758c-0.328,0.703-0.763,1.381-1.266,1.969
			c-0.364,0.425-0.751,0.639-1.122,0.639c-0.418,0-0.815-0.271-1.133-0.816c-0.566-0.973-0.982-2.035-1.42-3.076
			c-3.83-9.105-7.661-18.207-11.466-27.322c-1.06-2.539-2.108-5.087-3.024-7.68c-0.677-1.912-1.958-2.706-3.895-2.763
			c-0.357-0.011-0.867-0.279-1.025-0.577c-0.415-0.777,0.021-1.361,0.919-1.362c4.488-0.003,8.976,0.001,13.464-0.005
			c0.53,0,0.97,0.031,1.011,0.738c0.042,0.725-0.211,1.165-0.957,1.225c-0.893,0.071-1.79,0.088-2.68,0.177
			c-0.967,0.097-1.42,0.64-1.117,1.528c0.748,2.191,1.524,4.377,2.414,6.514c3.35,8.047,6.748,16.072,10.13,24.104
			c0.1,0.236,0.222,0.461,0.335,0.692c0.086,0.001,0.172,0.003,0.258,0.004c0.411-0.894,0.824-1.788,1.232-2.685
			c1.544-3.391,3.07-6.79,4.645-10.168c0.257-0.551,0.268-1,0.026-1.531c-2.291-5.037-4.568-10.08-6.854-15.12
			c-0.289-0.639-0.62-1.259-0.905-1.899c-0.438-0.984-1.186-1.491-2.251-1.613c-0.877-0.1-1.269-0.818-0.898-1.635
			c0.071-0.159,0.358-0.311,0.547-0.312c1.623-0.009,3.247-0.015,4.87-0.015c1.695,0,3.391,0.006,5.086,0.02
			c0.213,0.001,0.617,0.29,0.604,0.405c-0.064,0.514,0.383,1.178-0.338,1.52c-0.237,0.113-0.521,0.137-0.788,0.18
			c-1.098,0.174-1.387,0.553-0.97,1.605c0.755,1.906,1.597,3.777,2.417,5.657c0.817,1.878,1.652,3.746,2.556,5.794
			c0.247-0.479,0.424-0.793,0.573-1.121c1.302-2.848,2.608-5.693,3.89-8.553c0.24-0.536,0.43-1.109,0.543-1.686
			c0.184-0.941-0.235-1.497-1.174-1.682c-0.292-0.057-0.589-0.09-0.885-0.135c-1.003-0.156-1.324-0.613-1.027-1.599
			c0.065-0.218,0.411-0.499,0.627-0.499c3.095,0,6.19,0.048,9.284,0.077c0.856,0.008,0.634,0.641,0.65,1.114
			c0.018,0.522-0.179,0.873-0.763,0.873c-0.014,0-0.029,0-0.043,0c-0.036-0.001-0.071-0.001-0.105-0.001
			c-1.122,0-1.913,0.533-2.427,1.555c-1.639,3.26-3.304,6.506-4.938,9.77c-0.811,1.617-1.595,3.248-2.339,4.896
			c-0.141,0.312-0.158,0.792-0.021,1.102c2.183,4.998,4.4,9.98,6.615,14.964c0.129,0.288,0.309,0.555,0.582,1.035
			c0.322-0.752,0.588-1.319,0.811-1.899c3.537-9.242,7.069-18.485,10.598-27.73c0.134-0.352,0.223-0.721,0.307-1.089
			c0.275-1.201-0.409-2.231-1.646-2.435c-0.587-0.096-1.191-0.09-1.779-0.18c-0.393-0.059-0.86-0.103-1.131-0.34
			c-0.249-0.219-0.377-0.689-0.37-1.045c0.005-0.195,0.371-0.457,0.625-0.555c0.318-0.123,0.688-0.146,1.036-0.146
			c3.754-0.01,7.508-0.005,11.262-0.008C67.836,15.633,67.871,15.633,67.905,15.633 M67.905,13.507H67.85h0H67.8l-3.917,0.001
			c-2.449,0-4.898,0-7.348,0.007c-0.485,0-1.133,0.033-1.797,0.29c-0.508,0.195-1.07,0.557-1.466,1.069
			c-0.085-0.138-0.188-0.273-0.312-0.405c-0.355-0.378-1.001-0.832-2.061-0.841L48.31,13.6c-2.199-0.024-4.472-0.05-6.714-0.05
			c-1.154,0-2.324,0.884-2.664,2.013c-0.329,1.093-0.243,2.05,0.256,2.843c0.501,0.796,1.335,1.29,2.48,1.468l0.106,0.015
			c-0.06,0.174-0.128,0.347-0.204,0.517c-0.812,1.813-1.635,3.621-2.46,5.427c-0.225-0.511-0.448-1.018-0.669-1.527l-0.502-1.146
			c-0.491-1.119-0.995-2.267-1.469-3.412c0.091-0.034,0.184-0.072,0.278-0.117c0.722-0.342,1.892-1.228,1.556-3.284
			c-0.003-0.021-0.007-0.043-0.011-0.064c0.025-0.586-0.18-1.147-0.585-1.605c-0.412-0.466-1.218-1.012-2.132-1.016
			c-1.694-0.014-3.395-0.02-5.096-0.02c-1.627,0-3.255,0.005-4.881,0.015c-0.758,0.008-1.727,0.391-2.274,1.206
			c-0.42-0.644-1.201-1.224-2.652-1.224c-2.642,0.003-5.282,0.003-7.921,0.003l-5.545,0.001c-1.223,0.001-2.243,0.534-2.799,1.462
			c-0.541,0.902-0.539,2.005,0.006,3.026c0.575,1.078,1.862,1.672,2.837,1.702c1.145,0.034,1.601,0.348,1.954,1.347
			c0.938,2.653,1.986,5.198,3.067,7.789c3.465,8.302,7.011,16.73,10.439,24.882l1.029,2.446l0.187,0.447
			c0.394,0.944,0.8,1.921,1.355,2.875c0.696,1.191,1.778,1.873,2.971,1.873c1.002,0,1.975-0.491,2.737-1.383
			c0.624-0.728,1.169-1.577,1.578-2.453c1.483-3.187,2.956-6.436,4.379-9.578l0.544-1.2c0.091-0.202,0.183-0.404,0.274-0.606
			l0.32,0.765c1.388,3.319,2.775,6.638,4.173,9.952c0.417,0.988,0.821,1.775,1.269,2.478c1.062,1.665,2.409,1.914,3.117,1.914
			c0.688,0,2.003-0.237,3.075-1.826c0.466-0.691,0.846-1.396,1.13-2.096c2.068-5.111,4.087-10.163,5.789-14.43l0.191-0.479
			c2.642-6.619,5.373-13.464,8.039-20.205c0.658-1.664,1.557-2.385,3.103-2.488c1.526-0.103,2.948-0.58,3.02-3.35
			c0.03-1.102-0.406-1.787-0.776-2.167C69.404,13.507,68.354,13.507,67.905,13.507L67.905,13.507z M50.767,19.866
			c1.059,0,1.726-0.46,2.099-0.846c0.155-0.16,0.32-0.372,0.459-0.642c0.142,0.22,0.314,0.426,0.521,0.606
			c0.721,0.631,1.591,0.755,2.111,0.83l0.109,0.016c0.361,0.055,0.713,0.081,1.023,0.104c0.22,0.016,0.43,0.031,0.613,0.055
			c-0.06,0.263-0.12,0.498-0.191,0.686c-3.189,8.356-6.383,16.714-9.58,25.069c-1.642-3.697-3.314-7.47-4.946-11.203
			c0.651-1.432,1.362-2.915,2.168-4.524c0.896-1.79,1.8-3.573,2.705-5.356c0.746-1.469,1.491-2.939,2.231-4.411
			c0.193-0.384,0.298-0.384,0.528-0.384l0.031,0.001L50.767,19.866L50.767,19.866z M19.354,19.941
			c0.109-0.006,0.22-0.012,0.332-0.018c0.404-0.021,0.808-0.043,1.211-0.076c1.085-0.086,1.936-0.601,2.432-1.4
			c0.525,0.776,1.384,1.281,2.393,1.395c0.392,0.045,0.448,0.139,0.549,0.365c0.16,0.359,0.333,0.712,0.506,1.065
			c0.138,0.281,0.275,0.562,0.404,0.846l2.671,5.896c1.372,3.028,2.743,6.056,4.118,9.082c-1.137,2.446-2.247,4.893-3.321,7.26
			l-0.657,1.446l-1.026-2.435c-2.52-5.974-5.125-12.152-7.658-18.238C20.578,23.376,19.923,21.577,19.354,19.941L19.354,19.941z"/>
	</g>
</g>
</svg>
